<svg xmlns="http://www.w3.org/2000/svg" xmlns:xlink="http://www.w3.org/1999/xlink" width="1037.577" height="950.896" viewBox="0 0 1037.577 950.896">
  <defs>
    <pattern id="pattern" preserveAspectRatio="xMidYMid slice" width="100%" height="100%" viewBox="0 0 500 500">
      <image width="500" height="500" xlink:href="../../../../../Users/Malena/Downloads/pngegg.png"/>
    </pattern>
    <pattern id="pattern-2" preserveAspectRatio="none" width="100%" height="100%" viewBox="0 0 1122 754">
      <image width="1122" height="754" xlink:href="MAPAFIMCENTROS3-image.png"/>
    </pattern>
  </defs>
  <g id="MAPAFIMCENTROS3" transform="translate(-641.589 -49.081)">
    <path id="Trazado_34" data-name="Trazado 34" d="M0,0H376V58H0Z" transform="translate(1138.875 834.114) rotate(17)" fill="#5cc288"/>
    <g id="Rectángulo_3" data-name="Rectángulo 3" transform="matrix(0.966, 0.259, -0.259, 0.966, 1299.015, 863.694)" fill="#212e36" stroke="#fff" stroke-width="1">
      <rect width="81" height="58" stroke="none"/>
      <rect x="0.5" y="0.5" width="80" height="57" fill="none"/>
    </g>
    <g id="Rectángulo_2" data-name="Rectángulo 2" transform="matrix(0.966, 0.259, -0.259, 0.966, 1184.015, 662.694)" fill="#212e36" stroke="#fff" stroke-width="1">
      <rect width="154" height="162" stroke="none"/>
      <rect x="0.5" y="0.5" width="153" height="161" fill="none"/>
    </g>
    <path id="Trazado_1" data-name="Trazado 1" d="M1432.591,751.025l-11.973,43.339,10.057,2.435,12.931-42.365,31.13,9.252-11.494,42.852,11.494,2.435,12.452-42.365,54.6,17.53-43.1,151.442-161.874-46.26,43.1-152.9Z" transform="translate(-4.16 3)" fill="#212e36" stroke="#fff" stroke-width="1"/>
    <path id="Trazado_20" data-name="Trazado 20" d="M642.546,216.394l472.8-137.123L1219.98,381.293l-92.747,305.986L755.452,586.6Z" fill="#223340" stroke="#fff" stroke-width="1"/>
    <text id="Laboratorio_de_Energía._Lab._5" data-name="Laboratorio
de Energía. 
Lab. 5" transform="matrix(0.966, 0.259, -0.259, 0.966, 1435.589, 838.122)" fill="#fff" font-size="20" font-family="SegoeUI, Segoe UI"><tspan x="-51.104" y="0">Laboratorio</tspan><tspan x="-51.587" y="27">de Energía. </tspan><tspan x="-25.972" y="54">Lab. 5</tspan></text>
    <text id="Laboratorio_de_Electricidad_y_Automatización_MT" data-name="Laboratorio
de Electricidad y 
Automatización
MT" transform="matrix(0.966, 0.259, -0.259, 0.966, 1246.589, 733.122)" fill="#fff" font-size="20" font-family="SegoeUI, Segoe UI"><tspan x="-51.104" y="0">Laboratorio</tspan><tspan x="-74.697" y="27">de Electricidad y </tspan><tspan x="-69.038" y="54">Automatización</tspan><tspan font-family="SegoeUI-Bold, Segoe UI" font-weight="700"><tspan x="-15.43" y="81">MT</tspan></tspan></text>
    <g id="Rectángulo_4" data-name="Rectángulo 4" transform="matrix(0.966, 0.259, -0.259, 0.966, 1391.015, 908.694)" fill="#212e36" stroke="#fff" stroke-width="1">
      <rect width="111" height="39" stroke="none"/>
      <rect x="0.5" y="0.5" width="110" height="38" fill="none"/>
    </g>
    <g id="Rectángulo_5" data-name="Rectángulo 5" transform="matrix(0.966, 0.259, -0.259, 0.966, 1373.015, 903.694)" fill="#212e36" stroke="#fff" stroke-width="1">
      <rect width="18" height="39" stroke="none"/>
      <rect x="0.5" y="0.5" width="17" height="38" fill="none"/>
    </g>
    <ellipse id="Elipse_1" data-name="Elipse 1" cx="23" cy="22.5" rx="23" ry="22.5" transform="translate(1238 864)" fill="#67de93"/>
    <ellipse id="Elipse_2" data-name="Elipse 2" cx="17" cy="16.5" rx="17" ry="16.5" transform="translate(1204 847)" fill="#67de93"/>
    <ellipse id="Elipse_3" data-name="Elipse 3" cx="17" cy="16.5" rx="17" ry="16.5" transform="translate(1182 848)" fill="#67de93"/>
    <g id="Rectángulo_7" data-name="Rectángulo 7" transform="translate(906.444 696.221) rotate(17)" fill="#212e36" stroke="#fff" stroke-width="2.5">
      <rect width="211" height="120" stroke="none"/>
      <rect x="1.25" y="1.25" width="208.5" height="117.5" fill="none"/>
    </g>
    <g id="Rectángulo_8" data-name="Rectángulo 8" transform="translate(721.78 640.353) rotate(17)" fill="#212e36" stroke="#fff" stroke-width="1">
      <rect width="193" height="116" stroke="none"/>
      <rect x="0.5" y="0.5" width="192" height="115" fill="none"/>
    </g>
    <text id="Losa_1" data-name="Losa 1" transform="matrix(0.966, 0.259, -0.259, 0.966, 988.589, 789.122)" fill="#fff" font-size="20" font-family="SegoeUI, Segoe UI"><tspan x="-28.027" y="0">Losa 1</tspan></text>
    <g id="Rectángulo_24" data-name="Rectángulo 24" transform="translate(850.529 437.18) rotate(-18)" fill="#212e36" stroke="#fff" stroke-width="1">
      <rect width="304" height="91" stroke="none"/>
      <rect x="0.5" y="0.5" width="303" height="90" fill="none"/>
    </g>
    <text id="Losa_2" data-name="Losa 2" transform="matrix(0.966, 0.259, -0.259, 0.966, 794.589, 727.122)" fill="#fff" font-size="20" font-family="SegoeUI, Segoe UI"><tspan x="-28.027" y="0">Losa 2</tspan></text>
    <line id="Línea_1" data-name="Línea 1" x2="800" y2="249" transform="translate(680.5 750.5)" fill="none" stroke="#707070" stroke-width="1"/>
    <line id="Línea_2" data-name="Línea 2" x1="120" y2="438" transform="translate(1480.5 561.5)" fill="none" stroke="#707070" stroke-width="1"/>
    <g id="Rectángulo_11" data-name="Rectángulo 11" transform="translate(641.589 219.062) rotate(-17)" fill="rgba(117,255,167,0.7)" stroke="#707070" stroke-width="1">
      <rect width="127" height="381" stroke="none"/>
      <rect x="0.5" y="0.5" width="126" height="380" fill="none"/>
    </g>
    <g id="Rectángulo_9" data-name="Rectángulo 9" transform="translate(794.539 531.011) rotate(-18)" fill="#212e36" stroke="#fff" stroke-width="1">
      <rect width="85" height="78" stroke="none"/>
      <rect x="0.5" y="0.5" width="84" height="77" fill="none"/>
    </g>
    <text id="Estacionamiento" transform="matrix(0.966, 0.259, -0.259, 0.966, 933.589, 678.122)" fill="#fff" font-size="20" font-family="SegoeUI, Segoe UI"><tspan x="-72.598" y="0">Estacionamiento</tspan></text>
    <line id="Línea_3" data-name="Línea 3" y1="24" x2="8" transform="translate(725.5 616.5)" fill="none" stroke="#fff" stroke-width="1"/>
    <line id="Línea_4" data-name="Línea 4" y1="19" x2="6" transform="translate(740.5 625.5)" fill="none" stroke="#fff" stroke-width="1"/>
    <line id="Línea_5" data-name="Línea 5" y1="24" x2="8" transform="translate(756.5 625.5)" fill="none" stroke="#fff" stroke-width="1"/>
    <line id="Línea_6" data-name="Línea 6" y1="24" x2="8" transform="translate(771.5 631.5)" fill="none" stroke="#fff" stroke-width="1"/>
    <line id="Línea_7" data-name="Línea 7" y1="19" x2="6" transform="translate(789.5 640.5)" fill="none" stroke="#fff" stroke-width="1"/>
    <text id="InfoUNI" transform="matrix(0.966, 0.259, -0.259, 0.966, 843.589, 565.122)" fill="#fff" font-size="20" font-family="SegoeUI, Segoe UI"><tspan x="-34.321" y="0">InfoUNI</tspan></text>
    <text id="P.2" transform="matrix(0.966, 0.259, -0.259, 0.966, 1103.589, 863.122)" fill="#fff" font-size="20" font-family="SegoeUI-Bold, Segoe UI" font-weight="700"><tspan x="-13.105" y="0">P.2</tspan></text>
    <text id="P.3" transform="matrix(0.966, 0.259, -0.259, 0.966, 669.589, 736.122)" fill="#707070" font-size="20" font-family="SegoeUI-Bold, Segoe UI" font-weight="700"><tspan x="-13.105" y="0">P.3</tspan></text>
    <path id="Trazado_2" data-name="Trazado 2" d="M796.049,487.818,760.87,476.56l-20.638-55.818L792.5,402.919l-2.705-10.574,13.8-3.942,3.654,10.763,19.173-6.822,3.613,10.574-20.085,7.639,24.5,66Z" transform="translate(-1)" fill="#212e36" stroke="#707070" stroke-width="1"/>
    <path id="Trazado_3" data-name="Trazado 3" d="M795.069,415.682,812.4,463.427l-59.57-34.71Z" fill="#59c289" stroke="#707070" stroke-width="1"/>
    <path id="Trazado_4" data-name="Trazado 4" d="M739.232,420.743l-43.153-24.86,7.974,27.205,10.314-3.777,135.562,80.7L741.054,535.946l3.806,11.442L873.382,506.58l-39.071-128-11.935,3.053,34.588,107.6Z" fill="#212e36" stroke="#fff" stroke-width="1"/>
    <path id="Trazado_5" data-name="Trazado 5" d="M809.453,229.092l10.98-3.168,2.5,8.882,31.918-8.882,1.11,3.168,24.424-6.776,3.053,10.824,74.105-22.2L953.1,198.725l191.151-57.7-22.2-72.929-331.35,97.686Z" transform="translate(2 8)" fill="#212e36" stroke="#fff" stroke-width="1"/>
    <text id="Laboratorio_04_Máquinas_y_Herramientas" data-name="Laboratorio 04
Máquinas y Herramientas" transform="matrix(0.966, -0.259, 0.259, 0.966, 959.001, 156.122)" fill="#fff" font-size="20" font-family="SegoeUI, Segoe UI"><tspan x="-64.624" y="0">Laboratorio 04</tspan><tspan x="-112.358" y="27">Máquinas y Herramientas</tspan></text>
    <g id="Trazado_32" data-name="Trazado 32" transform="translate(1036.911 209.278) rotate(-18)" fill="#212e36">
      <path d="M 82.5 159.5 L 0.5 159.5 L 0.5 0.5 L 82.5 0.5 L 82.5 159.5 Z" stroke="none"/>
      <path d="M 1 1 L 1 159 L 82 159 L 82 1 L 1 1 M 0 0 L 83 0 L 83 160 L 0 160 L 0 0 Z" stroke="none" fill="#fff"/>
    </g>
    <text id="Pabellón_A3" data-name="Pabellón A3" transform="matrix(0.259, 0.966, -0.966, 0.259, 1094.59, 281.112)" fill="#fff" font-size="20" font-family="SegoeUI, Segoe UI"><tspan x="-52.397" y="0">Pabellón A3</tspan></text>
    <text id="Pabellón_A2" data-name="Pabellón A2" transform="matrix(0.966, -0.259, 0.259, 0.966, 1017.001, 438.122)" fill="#fff" font-size="20" font-family="SegoeUI, Segoe UI"><tspan x="-52.397" y="0">Pabellón A2</tspan></text>
    <g id="Rectángulo_12" data-name="Rectángulo 12" transform="translate(814.466 342.864) rotate(-18)" fill="#212e36" stroke="#fff" stroke-width="1">
      <rect width="55" height="40" stroke="none"/>
      <rect x="0.5" y="0.5" width="54" height="39" fill="none"/>
    </g>
    <g id="Rectángulo_13" data-name="Rectángulo 13" transform="translate(864.466 326.864) rotate(-18)" fill="#212e36" stroke="#fff" stroke-width="1">
      <rect width="55" height="40" stroke="none"/>
      <rect x="0.5" y="0.5" width="54" height="39" fill="none"/>
    </g>
    <g id="Rectángulo_14" data-name="Rectángulo 14" transform="translate(914.466 310.864) rotate(-18)" fill="#212e36" stroke="#fff" stroke-width="1">
      <rect width="45" height="39" stroke="none"/>
      <rect x="0.5" y="0.5" width="44" height="38" fill="none"/>
    </g>
    <g id="Rectángulo_15" data-name="Rectángulo 15" transform="translate(981.466 289.864) rotate(-18)" fill="#212e36" stroke="#fff" stroke-width="1">
      <rect width="78" height="42" stroke="none"/>
      <rect x="0.5" y="0.5" width="77" height="41" fill="none"/>
    </g>
    <text id="CEFIM" transform="matrix(0.966, -0.259, 0.259, 0.966, 847.001, 361.122)" fill="#fff" font-size="14" font-family="SegoeUI, Segoe UI"><tspan x="-19.441" y="0">CEFIM</tspan></text>
    <text id="TEFIM" transform="matrix(0.966, -0.259, 0.259, 0.966, 899.001, 345.122)" fill="#fff" font-size="14" font-family="SegoeUI, Segoe UI"><tspan x="-18.775" y="0">TEFIM</tspan></text>
    <g id="Rectángulo_19" data-name="Rectángulo 19" transform="translate(766.466 346.864) rotate(-18)" fill="#212e36" stroke="#fff" stroke-width="1">
      <rect width="47" height="51" stroke="none"/>
      <rect x="0.5" y="0.5" width="46" height="50" fill="none"/>
    </g>
    <g id="Rectángulo_17" data-name="Rectángulo 17" transform="translate(800.998 354.593) rotate(-18)" fill="#212e36" stroke="#fff" stroke-width="1">
      <rect width="17" height="23" stroke="none"/>
      <rect x="0.5" y="0.5" width="16" height="22" fill="none"/>
    </g>
    <path id="Trazado_26" data-name="Trazado 26" d="M1011.722,486.377l144.686-46.545-35.829,106.62S1020.561,524.7,1020.2,522.53,1011.722,486.377,1011.722,486.377Z" fill="#5ec784" stroke="#707070" stroke-width="1"/>
    <path id="Trazado_10" data-name="Trazado 10" d="M834.454,378.576l31.039-9.879,11.66,39.744,43.521-14.124,6.077,18.558-74.068,25.784Z" fill="#212e36" stroke="#fff" stroke-width="1"/>
    <g id="Rectángulo_18" data-name="Rectángulo 18" transform="translate(787.466 339.864) rotate(-18)" fill="#212e36" stroke="#fff" stroke-width="1">
      <rect width="25" height="19" stroke="none"/>
      <rect x="0.5" y="0.5" width="24" height="18" fill="none"/>
    </g>
    <path id="Trazado_7" data-name="Trazado 7" d="M747.678,332.093l4.691,15.01-8.912,2.345,2.868,9.137-10.391,2.99,3.214,11.063-9.493,2.243,3.633,13.523L719.82,393l5.912,19.872,57.152-17.737-21.843-67.17Z" fill="#212e36" stroke="#fff" stroke-width="1"/>
    <text id="Mesa_de_partes_FIM" data-name="Mesa de partes FIM" transform="matrix(0.966, -0.259, 0.259, 0.966, 880.001, 314.122)" fill="#fff" font-size="14" font-family="SegoeUI, Segoe UI"><tspan x="-60.693" y="0">Mesa de partes FIM</tspan></text>
    <path id="Trazado_6" data-name="Trazado 6" d="M817.1,334.774s-13.6,1.071-9.381,21.709c1.157,5.655,1.961,8.211,2.755,9.152,1.245,1.726,0-8.374,0-8.374l-5.627,2.079,5.971,6.635" transform="translate(3)" fill="none" stroke="#fff" stroke-width="1"/>
    <g id="Rectángulo_16" data-name="Rectángulo 16" transform="translate(742.662 287.1) rotate(-18)" fill="#212e36" stroke="#fff" stroke-width="1">
      <rect width="51" height="65" stroke="none"/>
      <rect x="0.5" y="0.5" width="50" height="64" fill="none"/>
    </g>
    <text id="Salón_de_grados" data-name="Salón 
de
 grados" transform="matrix(0.966, -0.259, 0.259, 0.966, 774.001, 300.122)" fill="#fff" font-size="14" font-family="SegoeUI, Segoe UI"><tspan x="-18.956" y="0">Salón </tspan><tspan x="-7.783" y="16">de</tspan><tspan x="-23.229" y="32" xml:space="preserve"> grados</tspan></text>
    <text id="Decanato" transform="matrix(0.966, -0.259, 0.259, 0.966, 753.001, 398.122)" fill="#fff" font-size="14" font-family="SegoeUI, Segoe UI"><tspan x="-29.36" y="0">Decanato</tspan></text>
    <path id="Trazado_8" data-name="Trazado 8" d="M817.1,334.774s-13.6,1.071-9.381,21.709c1.157,5.655,1.961,8.211,2.755,9.152,1.245,1.726,0-8.374,0-8.374l-5.627,2.079,5.971,6.635" transform="translate(-2 -20)" fill="none" stroke="#fff" stroke-width="1"/>
    <text id="Of._Personal_y_Bienestar_UNI" data-name="Of. Personal y Bienestar UNI" transform="matrix(0.966, -0.259, 0.259, 0.966, 897.001, 290.122)" fill="#fff" font-size="14" font-family="SegoeUI, Segoe UI"><tspan x="-86.324" y="0">Of. Personal y Bienestar UNI</tspan></text>
    <path id="Trazado_21" data-name="Trazado 21" d="M1146.252,173.128l26.482-9.275,86.564,243.2-49.465,200.952,351.408,88.625" fill="none" stroke="#ebcdcd" stroke-width="1"/>
    <g id="Rectángulo_20" data-name="Rectángulo 20" transform="translate(836.466 387.864) rotate(-18)" fill="#212e36" stroke="#fff" stroke-width="1">
      <rect width="33" height="21" stroke="none"/>
      <rect x="0.5" y="0.5" width="32" height="20" fill="none"/>
    </g>
    <text id="Of._Proyección_y_Resp._Social" data-name="Of. Proyección y Resp. Social" transform="matrix(0.966, -0.259, 0.259, 0.966, 960.001, 368.122)" fill="#fff" font-size="14" font-family="SegoeUI, Segoe UI"><tspan x="-88.023" y="0">Of. Proyección y Resp. Social</tspan></text>
    <path id="Trazado_9" data-name="Trazado 9" d="M807.454,352.048c-.671.605-.078,2.772.262,4.435,1.157,5.655,1.961,8.211,2.755,9.152,1.245,1.726,0-8.374,0-8.374l-5.627,2.079,5.971,6.635" transform="matrix(0.105, 0.995, -0.995, 0.105, 1139.168, -453.257)" fill="none" stroke="#fff" stroke-width="1"/>
    <g id="Rectángulo_21" data-name="Rectángulo 21" transform="translate(864.76 367.718) rotate(-18)" fill="#212e36" stroke="#fff" stroke-width="1">
      <rect width="22" height="13" stroke="none"/>
      <rect x="0.5" y="0.5" width="21" height="12" fill="none"/>
    </g>
    <g id="Rectángulo_22" data-name="Rectángulo 22" transform="translate(842.76 406.718) rotate(-18)" fill="#212e36" stroke="#fff" stroke-width="1">
      <rect width="22" height="13" stroke="none"/>
      <rect x="0.5" y="0.5" width="21" height="12" fill="none"/>
    </g>
    <text id="OERRAE" transform="matrix(0.966, -0.259, 0.259, 0.966, 897.001, 418.122)" fill="#fff" font-size="14" font-family="SegoeUI, Segoe UI"><tspan x="-25.249" y="0">OERRAE</tspan></text>
    <g id="Rectángulo_23" data-name="Rectángulo 23" transform="translate(890.85 401.229) rotate(-18)" fill="#fff" stroke="#707070" stroke-width="1">
      <rect width="22" height="3" stroke="none"/>
      <rect x="0.5" y="0.5" width="21" height="2" fill="none"/>
    </g>
    <path id="Trazado_30" data-name="Trazado 30" d="M1116.358,562.292l-16.237,54.338L950.744,577.3l90.2-33.195Z" fill="#5ec784" stroke="#707070" stroke-width="1"/>
    <g id="Rectángulo_25" data-name="Rectángulo 25" transform="translate(929.529 506.18) rotate(-18)" fill="#212e36" stroke="#fff" stroke-width="1">
      <rect width="48" height="59" stroke="none"/>
      <rect x="0.5" y="0.5" width="47" height="58" fill="none"/>
    </g>
    <path id="Trazado_11" data-name="Trazado 11" d="M1002.593,482.508l13.237,56.273-23.485,8.606-17.72-54.949Z" fill="#212e36" stroke="#fff" stroke-width="1"/>
    <text id="Of._Logística_y_Econom." data-name="Of. Logística y Econom." transform="matrix(0.966, -0.259, 0.259, 0.966, 1083.001, 478.122)" fill="#fff" font-size="14" font-family="SegoeUI, Segoe UI"><tspan x="-71.658" y="0">Of. Logística y Econom.</tspan></text>
    <path id="Trazado_12" data-name="Trazado 12" d="M817.1,334.774s-13.6,1.071-9.381,21.709c1.157,5.655,1.961,8.211,2.755,9.152,1.245,1.726,0-8.374,0-8.374l-5.627,2.079,5.971,6.635" transform="translate(192 158)" fill="none" stroke="#fff" stroke-width="1"/>
    <text id="Of._Calidad_Univ._y_Acreditación" data-name="Of. Calidad Univ. y 
Acreditación" transform="matrix(0.966, -0.259, 0.259, 0.966, 1056.001, 539.122)" fill="#fff" font-size="14" font-family="SegoeUI, Segoe UI"><tspan x="-58.471" y="0">Of. Calidad Univ. y </tspan><tspan x="-38.585" y="16">Acreditación</tspan></text>
    <path id="Trazado_14" data-name="Trazado 14" d="M1150.648,379.891l60.978-23.172,8.537,23.172-47.837,159.2-37.149-11.956,31.935-97.238Z" fill="#212e36" stroke="#fff" stroke-width="1"/>
    <text id="Biblioteca_Gerald_E.U." data-name="Biblioteca Gerald E.U." transform="translate(1188.972 448.255) rotate(-74)" fill="#fff" font-size="19" font-family="SegoeUI, Segoe UI"><tspan x="-89.081" y="0">Biblioteca Gerald E.U.</tspan></text>
    <g id="Rectángulo_30" data-name="Rectángulo 30" transform="translate(1152.692 304.838) rotate(-18)" fill="#212e36" stroke="#fff" stroke-width="1">
      <rect width="21" height="32" stroke="none"/>
      <rect x="0.5" y="0.5" width="20" height="31" fill="none"/>
    </g>
    <g id="Rectángulo_31" data-name="Rectángulo 31" transform="translate(1176.692 295.838) rotate(-18)" fill="#212e36" stroke="#fff" stroke-width="1">
      <rect width="21" height="32" stroke="none"/>
      <rect x="0.5" y="0.5" width="20" height="31" fill="none"/>
    </g>
    <g id="Rectángulo_32" data-name="Rectángulo 32" transform="translate(1166.692 263.838) rotate(-18)" fill="#212e36" stroke="#fff" stroke-width="1">
      <rect width="21" height="32" stroke="none"/>
      <rect x="0.5" y="0.5" width="20" height="31" fill="none"/>
    </g>
    <g id="Rectángulo_33" data-name="Rectángulo 33" transform="translate(1156.692 231.838) rotate(-18)" fill="#212e36" stroke="#fff" stroke-width="1">
      <rect width="21" height="32" stroke="none"/>
      <rect x="0.5" y="0.5" width="20" height="31" fill="none"/>
    </g>
    <g id="Rectángulo_34" data-name="Rectángulo 34" transform="translate(1146.692 200.838) rotate(-18)" fill="#212e36" stroke="#fff" stroke-width="1">
      <rect width="21" height="32" stroke="none"/>
      <rect x="0.5" y="0.5" width="20" height="31" fill="none"/>
    </g>
    <text id="Jarritas" transform="matrix(0.966, -0.259, 0.259, 0.966, 1242.001, 302.122)" fill="#fff" font-size="20" font-family="SegoeUI, Segoe UI"><tspan x="-30.752" y="0">Jarritas</tspan></text>
    <text id="Betty" transform="matrix(0.966, -0.259, 0.259, 0.966, 1191.001, 177.122)" fill="#fff" font-size="20" font-family="SegoeUI, Segoe UI"><tspan x="-22.578" y="0">Betty</tspan></text>
    <text id="Elvira" transform="matrix(0.966, -0.259, 0.259, 0.966, 1213.001, 237.122)" fill="#fff" font-size="20" font-family="SegoeUI, Segoe UI"><tspan x="-23.257" y="0">Elvira</tspan></text>
    <text id="kiosco" transform="matrix(0.966, -0.259, 0.259, 0.966, 1204.001, 343.122)" fill="#fff" font-size="20" font-family="SegoeUI, Segoe UI"><tspan x="-27.974" y="0">kiosco</tspan></text>
    <path id="Trazado_15" data-name="Trazado 15" d="M1166.692,324.38c-2.5,20.8,6.537,18.95,6.537,18.95l-2.624,2.721v-6.317l3.4,3.6" fill="none" stroke="#707070" stroke-width="1"/>
    <path id="Trazado_16" data-name="Trazado 16" d="M1192.314,307.81l13.8-4.8-2.3,4.8-2.135-8.089,5.255,3.285" fill="none" stroke="#fff" stroke-width="1"/>
    <path id="Trazado_17" data-name="Trazado 17" d="M1171.622,243.81l13.959-4.362-2.3,2.628-1.314-5.584,3.613,1.971" fill="none" stroke="#fff" stroke-width="1"/>
    <path id="Trazado_19" data-name="Trazado 19" d="M1247.032,520.656,1234.4,566.229l-22.235-6.44-14.655,51.517,72.265,16.842,33.858-11.889-25.267-87.679Z" transform="translate(0 -5.708)" fill="#212e36" stroke="#fff" stroke-width="1"/>
    <text id="Comedor_FIM" data-name="Comedor
FIM" transform="matrix(0.966, -0.259, 0.259, 0.966, 1245.001, 586.122)" fill="#fff" font-size="20" font-family="SegoeUI, Segoe UI"><tspan x="-41.118" y="0">Comedor</tspan><tspan x="-16.523" y="27">FIM</tspan></text>
    <text id="_1_0" data-name="1    0" transform="matrix(0.966, -0.259, 0.259, 0.966, 766.001, 517.122)" fill="#ebe8fc" font-size="30" font-family="SegoeUI, Segoe UI"><tspan x="-32.607" y="0" xml:space="preserve">1    0</tspan></text>
    <ellipse id="pngegg" cx="16.5" cy="18.5" rx="16.5" ry="18.5" transform="translate(746 488)" fill="url(#pattern)"/>
    <path id="Trazado_22" data-name="Trazado 22" d="M1316.868,890.3c-1.281-2.349-13.451-24.98-8.113-36.722,1.89-4.157,2.869-5.183,3.523-4.514.695.485-.107,6.009-.107,6.009l-8.54-5.764,9.821-2.349" fill="none" stroke="#707070" stroke-width="1"/>
    <text id="_Instituto_de_Motores_IMCI" data-name="
Instituto de 
Motores IMCI" transform="translate(1302.972 788.255) rotate(-74)" fill="#fff" font-size="19" font-family="SegoeUI, Segoe UI"><tspan x="0" y="0"></tspan><tspan x="-50.603" y="26">Instituto de </tspan><tspan x="-57.255" y="52">Motores IMCI</tspan></text>
    <path id="Trazado_23" data-name="Trazado 23" d="M725.5,412.874l-28.009-95.321,44.092-14.072s-7.3-28.681-10.788-48.746c-2.044-11.741-2.1-14.548,0-22.731,5.557-21.649,68.827-35.5,68.827-35.5l-2.776-8.6s-61.026,16.212-71.346,30.752c-4.344,6.122-6.735,16.889-4.953,32.112,2.371,20.258,10.247,45.823,10.247,45.823l-36.117,11.582-30.958-94.75-9.85,3.283,30.02,94.75,29.082,95.219Z" fill="#212e36" stroke="#707070" stroke-width="1"/>
    <path id="Trazado_24" data-name="Trazado 24" d="M1591.125,590.952c-249.386-76.722-207.135-35.5-252.478-80.844s-10.305-185.494-8.244-188.585,42.251-136.029,0-188.585-79.35-83.472-79.35-83.472" fill="none" stroke="#d9d2d2" stroke-width="1"/>
    <g id="Rectángulo_35" data-name="Rectángulo 35" transform="translate(1329.739 535.62) rotate(15)" fill="#5cc288" stroke="#707070" stroke-width="1">
      <rect width="267" height="99" stroke="none"/>
      <rect x="0.5" y="0.5" width="266" height="98" fill="none"/>
    </g>
    <g id="Rectángulo_36" data-name="Rectángulo 36" transform="matrix(0.966, 0.259, -0.259, 0.966, 1375.015, 739.694)" fill="#212e36" stroke="#fff" stroke-width="1">
      <rect width="54" height="48" stroke="none"/>
      <rect x="0.5" y="0.5" width="53" height="47" fill="none"/>
    </g>
    <path id="Trazado_25" data-name="Trazado 25" d="M1390.4,764.964s13.485-52.319,36.474-47.562-3.964,10.305-3.964,7.927V705.511l13.958,14.09" fill="none" stroke="#fff" stroke-width="1"/>
    <text id="INIFIM" transform="translate(1459.971 719.255) rotate(-74)" fill="#fff" font-size="20" font-family="SegoeUI, Segoe UI"><tspan x="-29.326" y="0">INIFIM</tspan></text>
    <g id="Rectángulo_37" data-name="Rectángulo 37" transform="translate(1622.452 508.253) rotate(16)" fill="#223340" stroke="#fff" stroke-width="1">
      <rect width="59" height="366" stroke="none"/>
      <rect x="0.5" y="0.5" width="58" height="365" fill="none"/>
    </g>
    <text id="Centro_de_Energías_Renovables" data-name="Centro de Energías Renovables" transform="translate(1598.971 698.255) rotate(-74)" fill="#fff" font-size="20" font-family="SegoeUI, Segoe UI"><tspan x="-136.294" y="0">Centro de Energías Renovables</tspan></text>
    <path id="Trazado_27" data-name="Trazado 27" d="M949.329,637.5l-11.214-27.725,144.47,39.87-6.567,23.922Z" fill="#5ec784" stroke="#707070" stroke-width="1"/>
    <g id="Trazado_36" data-name="Trazado 36" transform="translate(1135.133 526.478) rotate(16)" fill="#223340">
      <path d="M 38.5 22.5 L 0.5 22.5 L 0.5 0.5 L 38.5 0.5 L 38.5 22.5 Z" stroke="none"/>
      <path d="M 1 1 L 1 22 L 38 22 L 38 1 L 1 1 M 0 0 L 39 0 L 39 23 L 0 23 L 0 0 Z" stroke="none" fill="#fff"/>
    </g>
    <path id="Trazado_28" data-name="Trazado 28" d="M1161.856,573.657l-37.994-10.788-16.417,55.818,36.587,10.788Z" fill="#5ec784" stroke="#707070" stroke-width="1"/>
    <path id="Trazado_29" data-name="Trazado 29" d="M878.577,523.726c-.031,1.149,7.671,24.6,7.671,24.6l14.451-4.887,8.579,29.143,20.108-6.106-8.848-29.7,15.55-5.338-8.156-24.391Z" transform="translate(2.025)" fill="rgba(246,178,178,0.52)" stroke="#707070" stroke-width="1"/>
    <g id="Rectángulo_40" data-name="Rectángulo 40" transform="translate(1135.692 168.838) rotate(-18)" fill="#212e36" stroke="#fff" stroke-width="1">
      <rect width="21" height="32" stroke="none"/>
      <rect x="0.5" y="0.5" width="20" height="31" fill="none"/>
    </g>
    <path id="Trazado_31" data-name="Trazado 31" d="M1165.291,210.708c.089-.328,10.436-3.777,10.436-3.777l-1.642,2.956-1.807-4.927,4.27,1.971" transform="translate(-10 -30)" fill="none" stroke="#fff" stroke-width="1"/>
    <path id="Trazado_33" data-name="Trazado 33" d="M1165.291,210.708c.089-.328,10.436-3.777,10.436-3.777l-1.642,2.956-1.807-4.927,4.27,1.971" transform="translate(2 -1)" fill="none" stroke="#fff" stroke-width="1"/>
    <text id="Ronald" transform="matrix(0.966, -0.259, 0.259, 0.966, 1210.001, 203.122)" fill="#fff" font-size="20" font-family="SegoeUI, Segoe UI"><tspan x="-30.605" y="0">Ronald</tspan></text>
    <text id="Zona_de_Planchitas" data-name="Zona de Planchitas" transform="translate(1247.63 196.255) rotate(74)" fill="#fff" font-size="20" font-family="SegoeUI, Segoe UI"><tspan x="-83.096" y="0">Zona de Planchitas</tspan></text>
    <ellipse id="Elipse_4" data-name="Elipse 4" cx="23" cy="22.5" rx="23" ry="22.5" transform="translate(1414 572)" fill="#67de93"/>
    <ellipse id="Elipse_5" data-name="Elipse 5" cx="17" cy="16.5" rx="17" ry="16.5" transform="translate(1456 577)" fill="#67de93"/>
    <ellipse id="Elipse_6" data-name="Elipse 6" cx="23" cy="22.5" rx="23" ry="22.5" transform="translate(1497 606)" fill="#67de93"/>
    <ellipse id="Elipse_7" data-name="Elipse 7" cx="17" cy="16.5" rx="17" ry="16.5" transform="translate(1470 617)" fill="#67de93"/>
    <ellipse id="Elipse_8" data-name="Elipse 8" cx="17" cy="16.5" rx="17" ry="16.5" transform="translate(1353 564)" fill="#67de93"/>
    <ellipse id="Elipse_9" data-name="Elipse 9" cx="17" cy="16.5" rx="17" ry="16.5" transform="translate(1370 585)" fill="#67de93"/>
    <ellipse id="Elipse_10" data-name="Elipse 10" cx="17" cy="16.5" rx="17" ry="16.5" transform="translate(1337 581)" fill="#67de93"/>
    <path id="Trazado_35" data-name="Trazado 35" d="M817.1,334.774s-13.6,1.071-9.381,21.709c1.157,5.655,1.961,8.211,2.755,9.152,1.245,1.726,0-8.374,0-8.374l-5.627,2.079,5.971,6.635" transform="translate(630.596 1364.345) rotate(-90)" fill="none" stroke="#fff" stroke-width="1"/>
    <g id="ubicacion" transform="translate(700.89 1770.954)">
      <g id="APEINR" transform="translate(167.395 -1283.881) rotate(-18)" fill="#2aafac">
        <path d="M 28.5 38.5 L 0.5 38.5 L 0.5 0.5 L 28.5 0.5 L 28.5 38.5 Z" stroke="none"/>
        <path d="M 1 1 L 1 38 L 28 38 L 28 1 L 1 1 M 0 0 L 29 0 L 29 39 L 0 39 L 0 0 Z" stroke="none" fill="#fff"/>
      </g>
      <path id="APEIN" d="M11.755-1279.928a12.745,12.745,0,0,0-9.767,5.329,10.787,10.787,0,0,0-1.421,2.93,10.345,10.345,0,0,0,.82,8.018,11.151,11.151,0,0,0,1.816,2.482c.091.1,2.023,2.375,4.289,5.055,2.467,2.918,4.178,4.921,4.267,4.994a1.3,1.3,0,0,0,1.687,0c.089-.073,1.8-2.076,4.267-4.994,2.265-2.679,4.2-4.955,4.289-5.055a11.151,11.151,0,0,0,1.816-2.482,10.357,10.357,0,0,0,.468-8.992,11.647,11.647,0,0,0-4.831-5.456A13.565,13.565,0,0,0,11.755-1279.928Zm1.5,5.485a5.24,5.24,0,0,1,1.615.438,4.815,4.815,0,0,1,2.854,3.344,2.987,2.987,0,0,1,.075.891,3.487,3.487,0,0,1-.188,1.351,4.944,4.944,0,0,1-3.036,3.049,5.393,5.393,0,0,1-1.591.338,5.581,5.581,0,0,1-2.359-.338,4.944,4.944,0,0,1-3.036-3.049,3.487,3.487,0,0,1-.188-1.351,2.987,2.987,0,0,1,.075-.891,4.78,4.78,0,0,1,2.262-3.047,6.075,6.075,0,0,1,1.712-.659A6.179,6.179,0,0,1,13.257-1274.443Z" transform="translate(173.809 -18.54)" fill="#c7f0ff"/>
      <g id="ASMER" transform="translate(332.395 -1392.881) rotate(-18)" fill="#2aafac">
        <path d="M 55.5 27.5 L 0.5 27.5 L 0.5 0.5 L 55.5 0.5 L 55.5 27.5 Z" stroke="none"/>
        <path d="M 1 1 L 1 27 L 55 27 L 55 1 L 1 1 M 0 0 L 56 0 L 56 28 L 0 28 L 0 0 Z" stroke="none" fill="#fff"/>
      </g>
      <path id="ASME" d="M11.755-1279.928a12.745,12.745,0,0,0-9.767,5.329,10.787,10.787,0,0,0-1.421,2.93,10.345,10.345,0,0,0,.82,8.018,11.151,11.151,0,0,0,1.816,2.482c.091.1,2.023,2.375,4.289,5.055,2.467,2.918,4.178,4.921,4.267,4.994a1.3,1.3,0,0,0,1.687,0c.089-.073,1.8-2.076,4.267-4.994,2.265-2.679,4.2-4.955,4.289-5.055a11.151,11.151,0,0,0,1.816-2.482,10.357,10.357,0,0,0,.468-8.992,11.647,11.647,0,0,0-4.831-5.456A13.565,13.565,0,0,0,11.755-1279.928Zm1.5,5.485a5.24,5.24,0,0,1,1.615.438,4.815,4.815,0,0,1,2.854,3.344,2.987,2.987,0,0,1,.075.891,3.487,3.487,0,0,1-.188,1.351,4.944,4.944,0,0,1-3.036,3.049,5.393,5.393,0,0,1-1.591.338,5.581,5.581,0,0,1-2.359-.338,4.944,4.944,0,0,1-3.036-3.049,3.487,3.487,0,0,1-.188-1.351,2.987,2.987,0,0,1,.075-.891,4.78,4.78,0,0,1,2.262-3.047,6.075,6.075,0,0,1,1.712-.659A6.179,6.179,0,0,1,13.257-1274.443Z" transform="translate(347.809 -133.54)" fill="#c7f0ff"/>
      <g id="CEDIMR" transform="translate(193.485 -1347.37) rotate(-18)" fill="#2aafac">
        <path d="M 34.5 28.5 L 0.5 28.5 L 0.5 0.5 L 34.5 0.5 L 34.5 28.5 Z" stroke="none"/>
        <path d="M 1 1 L 1 28 L 34 28 L 34 1 L 1 1 M 0 0 L 35 0 L 35 29 L 0 29 L 0 0 Z" stroke="none" fill="#fff"/>
      </g>
      <path id="CEDIM" d="M11.755-1279.928a12.745,12.745,0,0,0-9.767,5.329,10.787,10.787,0,0,0-1.421,2.93,10.345,10.345,0,0,0,.82,8.018,11.151,11.151,0,0,0,1.816,2.482c.091.1,2.023,2.375,4.289,5.055,2.467,2.918,4.178,4.921,4.267,4.994a1.3,1.3,0,0,0,1.687,0c.089-.073,1.8-2.076,4.267-4.994,2.265-2.679,4.2-4.955,4.289-5.055a11.151,11.151,0,0,0,1.816-2.482,10.357,10.357,0,0,0,.468-8.992,11.647,11.647,0,0,0-4.831-5.456A13.565,13.565,0,0,0,11.755-1279.928Zm1.5,5.485a5.24,5.24,0,0,1,1.615.438,4.815,4.815,0,0,1,2.854,3.344,2.987,2.987,0,0,1,.075.891,3.487,3.487,0,0,1-.188,1.351,4.944,4.944,0,0,1-3.036,3.049,5.393,5.393,0,0,1-1.591.338,5.581,5.581,0,0,1-2.359-.338,4.944,4.944,0,0,1-3.036-3.049,3.487,3.487,0,0,1-.188-1.351,2.987,2.987,0,0,1,.075-.891,4.78,4.78,0,0,1,2.262-3.047,6.075,6.075,0,0,1,1.712-.659A6.179,6.179,0,0,1,13.257-1274.443Z" transform="translate(204.809 -82.54)" fill="#c7f0ff"/>
      <g id="CEDIMER" transform="translate(417.731 -1420.388) rotate(-18)" fill="#2aafac" stroke="#fff" stroke-width="1">
        <rect width="30" height="28" stroke="none"/>
        <rect x="0.5" y="0.5" width="29" height="27" fill="none"/>
      </g>
      <g id="UNIFIM1" transform="translate(380.007 -1429.015) rotate(-18)" fill="#223340">
        <path d="M 53.5 19.5 L 0.5 19.5 L 0.5 0.5 L 53.5 0.5 L 53.5 19.5 Z" stroke="none"/>
        <path d="M 1 1 L 1 19 L 53 19 L 53 1 L 1 1 M 0 0 L 54 0 L 54 20 L 0 20 L 0 0 Z" stroke="none" fill="#fff"/>
      </g>
      <g id="CIIM" transform="translate(366.007 -1470.015) rotate(-18)" fill="#2aafac" stroke="#fff" stroke-width="1">
        <rect width="25" height="20" stroke="none"/>
        <rect x="0.5" y="0.5" width="24" height="19" fill="none"/>
      </g>
      <path id="CIIM-2" data-name="CIIM" d="M11.755-1279.928a12.745,12.745,0,0,0-9.767,5.329,10.787,10.787,0,0,0-1.421,2.93,10.345,10.345,0,0,0,.82,8.018,11.151,11.151,0,0,0,1.816,2.482c.091.1,2.023,2.375,4.289,5.055,2.467,2.918,4.178,4.921,4.267,4.994a1.3,1.3,0,0,0,1.687,0c.089-.073,1.8-2.076,4.267-4.994,2.265-2.679,4.2-4.955,4.289-5.055a11.151,11.151,0,0,0,1.816-2.482,10.357,10.357,0,0,0,.468-8.992,11.647,11.647,0,0,0-4.831-5.456A13.565,13.565,0,0,0,11.755-1279.928Zm1.5,5.485a5.24,5.24,0,0,1,1.615.438,4.815,4.815,0,0,1,2.854,3.344,2.987,2.987,0,0,1,.075.891,3.487,3.487,0,0,1-.188,1.351,4.944,4.944,0,0,1-3.036,3.049,5.393,5.393,0,0,1-1.591.338,5.581,5.581,0,0,1-2.359-.338,4.944,4.944,0,0,1-3.036-3.049,3.487,3.487,0,0,1-.188-1.351,2.987,2.987,0,0,1,.075-.891,4.78,4.78,0,0,1,2.262-3.047,6.075,6.075,0,0,1,1.712-.659A6.179,6.179,0,0,1,13.257-1274.443Z" transform="translate(362.809 -216.54)" fill="#c7f0ff"/>
      <g id="UNIFIM2" transform="translate(374.007 -1447.015) rotate(-18)" fill="#223340">
        <path d="M 24.5 19.5 L 0.5 19.5 L 0.5 0.5 L 16.875 0.5 L 24.5 0.5 L 24.5 19.5 Z" stroke="none"/>
        <path d="M 1 1 L 1 19 L 24 19 L 24 1 L 16.875 1 L 1 1 M 0 0 C 0 0 10.625 0 16.875 0 C 23.125 0 25 0 25 0 L 25 20 L 0 20 L 0 0 Z" stroke="none" fill="#fff"/>
      </g>
      <path id="UNIFIM2-2" data-name="UNIFIM2" d="M11.755-1279.928a12.745,12.745,0,0,0-9.767,5.329,10.787,10.787,0,0,0-1.421,2.93,10.345,10.345,0,0,0,.82,8.018,11.151,11.151,0,0,0,1.816,2.482c.091.1,2.023,2.375,4.289,5.055,2.467,2.918,4.178,4.921,4.267,4.994a1.3,1.3,0,0,0,1.687,0c.089-.073,1.8-2.076,4.267-4.994,2.265-2.679,4.2-4.955,4.289-5.055a11.151,11.151,0,0,0,1.816-2.482,10.357,10.357,0,0,0,.468-8.992,11.647,11.647,0,0,0-4.831-5.456A13.565,13.565,0,0,0,11.755-1279.928Zm1.5,5.485a5.24,5.24,0,0,1,1.615.438,4.815,4.815,0,0,1,2.854,3.344,2.987,2.987,0,0,1,.075.891,3.487,3.487,0,0,1-.188,1.351,4.944,4.944,0,0,1-3.036,3.049,5.393,5.393,0,0,1-1.591.338,5.581,5.581,0,0,1-2.359-.338,4.944,4.944,0,0,1-3.036-3.049,3.487,3.487,0,0,1-.188-1.351,2.987,2.987,0,0,1,.075-.891,4.78,4.78,0,0,1,2.262-3.047,6.075,6.075,0,0,1,1.712-.659A6.179,6.179,0,0,1,13.257-1274.443Z" transform="translate(372.809 -187.54)" fill="#c7f0ff"/>
      <g id="DESI" transform="translate(398.535 -1552.624) rotate(-18)" fill="#223340" stroke="#fff" stroke-width="1">
        <rect width="26" height="28" stroke="none"/>
        <rect x="0.5" y="0.5" width="25" height="27" fill="none"/>
      </g>
      <path id="DESI-2" data-name="DESI" d="M11.755-1279.928a12.745,12.745,0,0,0-9.767,5.329,10.787,10.787,0,0,0-1.421,2.93,10.345,10.345,0,0,0,.82,8.018,11.151,11.151,0,0,0,1.816,2.482c.091.1,2.023,2.375,4.289,5.055,2.467,2.918,4.178,4.921,4.267,4.994a1.3,1.3,0,0,0,1.687,0c.089-.073,1.8-2.076,4.267-4.994,2.265-2.679,4.2-4.955,4.289-5.055a11.151,11.151,0,0,0,1.816-2.482,10.357,10.357,0,0,0,.468-8.992,11.647,11.647,0,0,0-4.831-5.456A13.565,13.565,0,0,0,11.755-1279.928Zm1.5,5.485a5.24,5.24,0,0,1,1.615.438,4.815,4.815,0,0,1,2.854,3.344,2.987,2.987,0,0,1,.075.891,3.487,3.487,0,0,1-.188,1.351,4.944,4.944,0,0,1-3.036,3.049,5.393,5.393,0,0,1-1.591.338,5.581,5.581,0,0,1-2.359-.338,4.944,4.944,0,0,1-3.036-3.049,3.487,3.487,0,0,1-.188-1.351,2.987,2.987,0,0,1,.075-.891,4.78,4.78,0,0,1,2.262-3.047,6.075,6.075,0,0,1,1.712-.659A6.179,6.179,0,0,1,13.257-1274.443Z" transform="translate(403.809 -292.54)" fill="#c7f0ff"/>
      <g id="UNIFIM3" transform="translate(415.535 -1497.624) rotate(-18)" fill="#223340" stroke="#fff" stroke-width="1">
        <rect width="26" height="28" stroke="none"/>
        <rect x="0.5" y="0.5" width="25" height="27" fill="none"/>
      </g>
      <path id="UNIFIM3-2" data-name="UNIFIM3" d="M11.755-1279.928a12.745,12.745,0,0,0-9.767,5.329,10.787,10.787,0,0,0-1.421,2.93,10.345,10.345,0,0,0,.82,8.018,11.151,11.151,0,0,0,1.816,2.482c.091.1,2.023,2.375,4.289,5.055,2.467,2.918,4.178,4.921,4.267,4.994a1.3,1.3,0,0,0,1.687,0c.089-.073,1.8-2.076,4.267-4.994,2.265-2.679,4.2-4.955,4.289-5.055a11.151,11.151,0,0,0,1.816-2.482,10.357,10.357,0,0,0,.468-8.992,11.647,11.647,0,0,0-4.831-5.456A13.565,13.565,0,0,0,11.755-1279.928Zm1.5,5.485a5.24,5.24,0,0,1,1.615.438,4.815,4.815,0,0,1,2.854,3.344,2.987,2.987,0,0,1,.075.891,3.487,3.487,0,0,1-.188,1.351,4.944,4.944,0,0,1-3.036,3.049,5.393,5.393,0,0,1-1.591.338,5.581,5.581,0,0,1-2.359-.338,4.944,4.944,0,0,1-3.036-3.049,3.487,3.487,0,0,1-.188-1.351,2.987,2.987,0,0,1,.075-.891,4.78,4.78,0,0,1,2.262-3.047,6.075,6.075,0,0,1,1.712-.659A6.179,6.179,0,0,1,13.257-1274.443Z" transform="translate(420.809 -231.54)" fill="#c7f0ff"/>
      <g id="tefimhover" transform="translate(-715.89 -1804.954)">
        <g id="Rectángulo_41" data-name="Rectángulo 41" transform="translate(902 193)" fill="#212e36" stroke="#707070" stroke-width="1">
          <rect width="209" height="177" rx="15" stroke="none"/>
          <rect x="0.5" y="0.5" width="208" height="176" rx="14.5" fill="none"/>
        </g>
        <text id="Tercio_de_Estudiantes_de_la_Facultad_de_Ingeniería_Mecánica_UNI" data-name="Tercio de Estudiantes de la Facultad de Ingeniería Mecánica UNI" transform="translate(924 205)" fill="#fff" font-size="12" font-family="SegoeUI, Segoe UI"><tspan x="0" y="13">Tercio de Estudiantes de la </tspan><tspan x="0" y="29">Facultad de Ingeniería Mecánica </tspan></text>
        <rect id="Imagen_1" data-name="Imagen 1" width="162" height="109" rx="14" transform="translate(927 243)" fill="url(#pattern-2)"/>
      </g>
      <path id="TEFIM-2" data-name="TEFIM" d="M11.755-1279.928a12.745,12.745,0,0,0-9.767,5.329,10.787,10.787,0,0,0-1.421,2.93,10.345,10.345,0,0,0,.82,8.018,11.151,11.151,0,0,0,1.816,2.482c.091.1,2.023,2.375,4.289,5.055,2.467,2.918,4.178,4.921,4.267,4.994a1.3,1.3,0,0,0,1.687,0c.089-.073,1.8-2.076,4.267-4.994,2.265-2.679,4.2-4.955,4.289-5.055a11.151,11.151,0,0,0,1.816-2.482,10.357,10.357,0,0,0,.468-8.992,11.647,11.647,0,0,0-4.831-5.456A13.565,13.565,0,0,0,11.755-1279.928Zm1.5,5.485a5.24,5.24,0,0,1,1.615.438,4.815,4.815,0,0,1,2.854,3.344,2.987,2.987,0,0,1,.075.891,3.487,3.487,0,0,1-.188,1.351,4.944,4.944,0,0,1-3.036,3.049,5.393,5.393,0,0,1-1.591.338,5.581,5.581,0,0,1-2.359-.338,4.944,4.944,0,0,1-3.036-3.049,3.487,3.487,0,0,1-.188-1.351,2.987,2.987,0,0,1,.075-.891,4.78,4.78,0,0,1,2.262-3.047,6.075,6.075,0,0,1,1.712-.659A6.179,6.179,0,0,1,13.257-1274.443Z" transform="translate(179.809 -187.54)" fill="#c7f0ff"/>
      <path id="CEFIM-2" data-name="CEFIM" d="M11.755-1279.928a12.745,12.745,0,0,0-9.767,5.329,10.787,10.787,0,0,0-1.421,2.93,10.345,10.345,0,0,0,.82,8.018,11.151,11.151,0,0,0,1.816,2.482c.091.1,2.023,2.375,4.289,5.055,2.467,2.918,4.178,4.921,4.267,4.994a1.3,1.3,0,0,0,1.687,0c.089-.073,1.8-2.076,4.267-4.994,2.265-2.679,4.2-4.955,4.289-5.055a11.151,11.151,0,0,0,1.816-2.482,10.357,10.357,0,0,0,.468-8.992,11.647,11.647,0,0,0-4.831-5.456A13.565,13.565,0,0,0,11.755-1279.928Zm1.5,5.485a5.24,5.24,0,0,1,1.615.438,4.815,4.815,0,0,1,2.854,3.344,2.987,2.987,0,0,1,.075.891,3.487,3.487,0,0,1-.188,1.351,4.944,4.944,0,0,1-3.036,3.049,5.393,5.393,0,0,1-1.591.338,5.581,5.581,0,0,1-2.359-.338,4.944,4.944,0,0,1-3.036-3.049,3.487,3.487,0,0,1-.188-1.351,2.987,2.987,0,0,1,.075-.891,4.78,4.78,0,0,1,2.262-3.047,6.075,6.075,0,0,1,1.712-.659A6.179,6.179,0,0,1,13.257-1274.443Z" transform="translate(129.809 -172.54)" fill="#c7f0ff"/>
      <path id="CEDIME" d="M11.755-1279.928a12.745,12.745,0,0,0-9.767,5.329,10.787,10.787,0,0,0-1.421,2.93,10.345,10.345,0,0,0,.82,8.018,11.151,11.151,0,0,0,1.816,2.482c.091.1,2.023,2.375,4.289,5.055,2.467,2.918,4.178,4.921,4.267,4.994a1.3,1.3,0,0,0,1.687,0c.089-.073,1.8-2.076,4.267-4.994,2.265-2.679,4.2-4.955,4.289-5.055a11.151,11.151,0,0,0,1.816-2.482,10.357,10.357,0,0,0,.468-8.992,11.647,11.647,0,0,0-4.831-5.456A13.565,13.565,0,0,0,11.755-1279.928Zm1.5,5.485a5.24,5.24,0,0,1,1.615.438,4.815,4.815,0,0,1,2.854,3.344,2.987,2.987,0,0,1,.075.891,3.487,3.487,0,0,1-.188,1.351,4.944,4.944,0,0,1-3.036,3.049,5.393,5.393,0,0,1-1.591.338,5.581,5.581,0,0,1-2.359-.338,4.944,4.944,0,0,1-3.036-3.049,3.487,3.487,0,0,1-.188-1.351,2.987,2.987,0,0,1,.075-.891,4.78,4.78,0,0,1,2.262-3.047,6.075,6.075,0,0,1,1.712-.659A6.179,6.179,0,0,1,13.257-1274.443Z" transform="translate(425.809 -154.54)" fill="#c7f0ff"/>
      <path id="UNIFIM1-2" data-name="UNIFIM1" d="M11.755-1279.928a12.745,12.745,0,0,0-9.767,5.329,10.787,10.787,0,0,0-1.421,2.93,10.345,10.345,0,0,0,.82,8.018,11.151,11.151,0,0,0,1.816,2.482c.091.1,2.023,2.375,4.289,5.055,2.467,2.918,4.178,4.921,4.267,4.994a1.3,1.3,0,0,0,1.687,0c.089-.073,1.8-2.076,4.267-4.994,2.265-2.679,4.2-4.955,4.289-5.055a11.151,11.151,0,0,0,1.816-2.482,10.357,10.357,0,0,0,.468-8.992,11.647,11.647,0,0,0-4.831-5.456A13.565,13.565,0,0,0,11.755-1279.928Zm1.5,5.485a5.24,5.24,0,0,1,1.615.438,4.815,4.815,0,0,1,2.854,3.344,2.987,2.987,0,0,1,.075.891,3.487,3.487,0,0,1-.188,1.351,4.944,4.944,0,0,1-3.036,3.049,5.393,5.393,0,0,1-1.591.338,5.581,5.581,0,0,1-2.359-.338,4.944,4.944,0,0,1-3.036-3.049,3.487,3.487,0,0,1-.188-1.351,2.987,2.987,0,0,1,.075-.891,4.78,4.78,0,0,1,2.262-3.047,6.075,6.075,0,0,1,1.712-.659A6.179,6.179,0,0,1,13.257-1274.443Z" transform="translate(395.809 -172.54)" fill="#c7f0ff"/>
    </g>
  </g>
</svg>
